<?xml version="1.0" encoding="UTF-8" standalone="no"?>
<!-- Created with Inkscape (http://www.inkscape.org/) -->

<svg
   xmlns:dc="http://purl.org/dc/elements/1.1/"
   xmlns:cc="http://creativecommons.org/ns#"
   xmlns:rdf="http://www.w3.org/1999/02/22-rdf-syntax-ns#"
   xmlns:svg="http://www.w3.org/2000/svg"
   xmlns="http://www.w3.org/2000/svg"
   xmlns:xlink="http://www.w3.org/1999/xlink"
   version="1.1"
   width="16"
   height="16"
   id="svg2">
  <metadata
     id="metadata8">
    <rdf:RDF>
      <cc:Work
         rdf:about="">
        <dc:format>image/svg+xml</dc:format>
        <dc:type
           rdf:resource="http://purl.org/dc/dcmitype/StillImage" />
        <dc:title></dc:title>
      </cc:Work>
    </rdf:RDF>
  </metadata>
  <defs
     id="defs6">
    <linearGradient
       id="linearGradient4912">
      <stop
         id="stop4914"
         style="stop-color:#ffaf00;stop-opacity:1"
         offset="0" />
      <stop
         id="stop4916"
         style="stop-color:#ffaf00;stop-opacity:0"
         offset="1" />
    </linearGradient>
    <linearGradient
       x1="8"
       y1="16"
       x2="8"
       y2="0.62711823"
       id="linearGradient4918"
       xlink:href="#linearGradient4912"
       gradientUnits="userSpaceOnUse"
       gradientTransform="matrix(-1,0,0,-1,16.042489,16.026102)" />
  </defs>
  <path
     d="m 14.042489,15.449831 1.627118,-1.423729 -6.271186,-13 -1.3559322,-0.59322 -2,0.59322 -5.55932204,12 0.55932204,1.644068 2,0.847457 z"
     id="path4402"
     style="fill:url(#linearGradient4918);fill-opacity:1;stroke:none" />
  <path
     d="M 8,0 C 6.3732881,0 5.9999998,1 5.9999998,1 L 0.18749976,12.5 c 0,0 -0.626622,1.705476 0.375,2.65625 C 1.5641228,16.107025 2.9999998,16 2.9999998,16 L 13,16 c 0,0 1.512679,0.226728 2.53125,-0.65625 1.018571,-0.882977 0.21875,-2.75 0.21875,-2.75 L 10,1 C 10,1 9.6267119,0 8,0 z M 7.96875,0.9375 C 9.1734692,0.92654 9.4375,2 9.4375,2 l 5.21875,10.59375 c 0,0 0.763855,1.182365 0.25,1.84375 C 14.392395,15.098886 13,15 13,15 L 2.9999998,15 c 0,0 -1.213277,-0.02578 -1.75,-0.5625 C 0.71327676,13.900776 0.99999976,13 0.99999976,13 L 6.46875,2.03125 c 0,0 0.2952809,-1.082791 1.5,-1.09375 z"
     id="path3763"
     style="fill:#000000;stroke:none" />
  <rect
     width="2"
     height="5.9661016"
     x="7"
     y="4"
     id="rect2991"
     style="fill:#000000;fill-rule:evenodd;stroke:none" />
  <rect
     width="2"
     height="2"
     x="6.9661016"
     y="11"
     id="rect3761"
     style="fill:#000000;stroke:none" />
</svg>
